<?xml version="1.0" encoding="UTF-8"?>
<svg version="1.1" xmlns="http://www.w3.org/2000/svg" width="150" height="160">
<path d="M0 0 C2.5793457 1.17651367 2.5793457 1.17651367 5.17578125 2.66796875 C6.15651611 3.22476318 7.13725098 3.78155762 8.14770508 4.35522461 C9.1920874 4.95987549 10.23646973 5.56452637 11.3125 6.1875 C13.55191548 7.46383623 15.79150394 8.73986898 18.03125 10.015625 C19.19146134 10.68024238 20.35161729 11.34495647 21.51171875 12.00976562 C27.0862925 15.19801696 32.70272655 18.31176851 38.3125 21.4375 C41.19086453 23.04203711 44.06531308 24.6447146 46.90838623 26.31108093 C49.94846865 28.0548947 49.94846865 28.0548947 53.14646912 29.24050903 C56.71579362 30.81021474 59.21301159 32.25425655 62 35 C63.70135908 40.77289299 63.40369616 46.34210139 63.171875 52.30859375 C63.14947162 54.00246655 63.13240036 55.69641752 63.12042236 57.39039612 C63.07476556 61.83293254 62.95706558 66.27070249 62.82397461 70.71136475 C62.70084494 75.24897769 62.64633451 79.7873672 62.5859375 84.32617188 C62.45753253 93.2195338 62.25295142 102.10936949 62 111 C49.78244524 117.99849631 37.55404521 124.97097601 25.24121094 131.80078125 C20.23205592 134.58998737 15.2632661 137.41838936 10.3671875 140.40234375 C9.49916504 140.92626709 8.63114258 141.45019043 7.73681641 141.98999023 C6.12277798 142.970044 4.51759116 143.96488364 2.92333984 144.97680664 C2.21129395 145.40727295 1.49924805 145.83773926 0.765625 146.28125 C-0.15041504 146.85456055 -0.15041504 146.85456055 -1.08496094 147.43945312 C-4.68340371 148.4927454 -7.52648099 146.24684906 -10.68115234 144.60229492 C-11.63973145 144.06709229 -12.59831055 143.53188965 -13.5859375 142.98046875 C-14.67060303 142.37654297 -15.75526855 141.77261719 -16.87280273 141.15039062 C-18.04027274 140.49622029 -19.20767016 139.84192041 -20.375 139.1875 C-21.58201186 138.51349138 -22.78912578 137.8396655 -23.99633789 137.16601562 C-27.66712368 135.11583153 -31.33411811 133.0589372 -35 131 C-36.09586426 130.38463379 -37.19172852 129.76926758 -38.32080078 129.13525391 C-41.36111185 127.42599149 -44.39988244 125.71404414 -47.4375 124 C-48.32808105 123.49750732 -49.21866211 122.99501465 -50.13623047 122.47729492 C-51.81620211 121.52635868 -53.48684041 120.55863976 -55.1452179 119.57052612 C-57.98033522 117.93116422 -57.98033522 117.93116422 -61.09687805 116.7842865 C-64.68187114 115.20646969 -67.19581265 113.75322395 -70 111 C-71.70380292 105.22810846 -71.40368339 99.65756983 -71.171875 93.69140625 C-71.14947162 91.99753345 -71.13240036 90.30358248 -71.12042236 88.60960388 C-71.07476556 84.16706746 -70.95706558 79.72929751 -70.82397461 75.28863525 C-70.70084494 70.75102231 -70.64633451 66.2126328 -70.5859375 61.67382812 C-70.45753253 52.7804662 -70 35 C-68.78093712 34.32844627 -68.78093712 34.32844627 -67.5372467 33.64332581 C-64.45790888 31.94665098 -61.37884114 30.24948792 -58.29994202 28.55201721 C-56.97934715 27.82406531 -55.65865169 27.09629585 -54.33784485 26.36872864 C-45.68068269 21.59972434 -37.04483378 16.79603491 -28.4375 11.9375 C-26.96392784 11.10693085 -26.96392784 11.10693085 -25.46058655 10.25958252 C-21.64045628 8.10424531 -17.84394002 5.93178864 -14.125 3.60546875 C-13.073125 2.95191406 -12.02125 2.29835938 -10.9375 1.625 C-9.68259766 0.80902344 -9.68259766 0.80902344 -8.40234375 -0.0234375 C-5.18907912 -1.32964263 -3.35958634 -0.77049753 0 0 Z M-10.390625 7.82421875 C-11.48197754 8.43475098 -12.57333008 9.0452832 -13.69775391 9.67431641 C-14.88191735 10.34523392 -16.06599749 11.0162985 -17.25 11.6875 C-18.4637265 12.36951817 -19.67775979 13.05099064 -20.89208984 13.73193359 C-23.99728662 15.47534768 -27.09809241 17.2264058 -30.1973877 18.98028564 C-32.99204057 20.56118446 -35.78917794 22.13767569 -38.5859375 23.71484375 C-43.15942042 26.29582176 -47.72922292 28.88318766 -52.29541016 31.47705078 C-56.187304 33.66856854 -60.0955799 35.83087772 -64 38 C-64 61.1 -64 84.2 -64 108 C-55.75 112.62 -47.5 117.24 -39 122 C-26.5625 129 -26.5625 129 -21.12890625 132.0625 C-19.85490967 132.77792969 -19.85490967 132.77792969 -18.55517578 133.5078125 C-16.78668781 134.54058514 -15.04638608 135.62259734 -13.33154297 136.7421875 C-12.03627686 137.58136719 -12.03627686 137.58136719 -10.71484375 138.4375 C-9.95163818 138.95183594 -9.18843262 139.46617187 -8.40209961 139.99609375 C-5.15698847 141.35231867 -3.36597792 140.92579182 0 140 C2.81880328 138.75396295 2.81880328 138.75396295 5.61328125 137.11328125 C6.68497559 136.5109668 7.75666992 135.90865234 8.86083984 135.28808594 C9.9998877 134.63614258 11.13893555 133.98419922 12.3125 133.3125 C13.50423109 132.63878278 14.69645875 131.96594325 15.88916016 131.29394531 C18.35677394 129.9022151 20.82167048 128.50583969 23.28466797 127.10595703 C26.90071035 125.05289181 30.52842053 123.02124128 34.16015625 120.99609375 C35.2896167 120.36598389 36.41907715 119.73587402 37.58276367 119.08666992 C38.66920166 118.48056885 39.75563965 117.87446777 40.875 117.25 C42.91469576 116.1105078 44.9538043 114.96996351 46.9921875 113.828125 C47.84151855 113.3527832 48.69084961 112.87744141 49.56591797 112.38769531 C50.36916504 111.92975586 51.17241211 111.47181641 52 111 C52.86054993 110.61207779 53.72109985 110.22415558 54.60772705 109.82447815 C57.28922985 108.18461913 57.28922985 108.18461913 57.66183472 105.06010437 C57.6778775 103.85908585 57.69392029 102.65806732 57.71044922 101.4206543 C57.72563599 100.7568576 57.74082275 100.09306091 57.75646973 99.40914917 C57.79888229 97.21365739 57.803766 95.02009472 57.8046875 92.82421875 C57.81821655 91.29587508 57.83264386 89.76753913 57.84793091 88.23921204 C57.87336483 85.0337068 57.87862207 81.8288818 57.87158203 78.62329102 C57.86549123 74.52296578 57.92329003 70.42633963 57.99824333 66.32680035 C58.04644292 63.16868155 58.05328767 60.01144913 58.0485878 56.85300636 C58.05263156 55.34229619 58.07107332 53.83155125 58.10439682 52.32120323 C58.52809978 44.00034828 58.52809978 44.00034828 55.09701538 36.80131531 C52.79047248 35.23354145 50.56444622 34.08458949 48 33 C47.11683105 32.47978271 46.23366211 31.95956543 45.32373047 31.42358398 C44.59557129 31.03501221 43.86741211 30.64644043 43.1171875 30.24609375 C42.2708374 29.79032959 41.4244873 29.33456543 40.55249023 28.86499023 C39.66891846 28.39391846 38.78534668 27.92284668 37.875 27.4375 C29.68138374 23.0198087 21.53789988 18.524013 13.4375 13.9375 C12.4686084 13.38956787 11.4997168 12.84163574 10.50146484 12.27709961 C3.32729927 8.20945071 3.32729927 8.20945071 0.39086914 6.33032227 C-4.00493724 3.88441713 -6.3148055 5.52911354 -10.390625 7.82421875 Z" fill="#7E2773" transform="translate(79,10)"/>
<path d="M0 0 C5.92324354 -0.09235027 11.84394134 -0.1718298 17.76733398 -0.21972656 C19.77783724 -0.23971393 21.78828333 -0.26691326 23.79858398 -0.30175781 C45.31756124 -0.66512768 45.31756124 -0.66512768 54 4 C54.99515625 4.51820312 55.9903125 5.03640625 57.015625 5.5703125 C63.16386343 9.8482826 67.27077983 14.50494154 71 21 C71.3609375 21.61230469 71.721875 22.22460938 72.09375 22.85546875 C75.71887734 30.45816637 75.19336836 42.0651083 72.875 50 C69.25832627 58.82401414 61.82622296 67.03127846 53.33984375 71.35546875 C50.9106533 72.34646397 48.50830642 73.23321203 46 74 C45.45480713 74.17724609 44.90961426 74.35449219 44.34790039 74.53710938 C40.9636825 75.20431091 37.60618628 75.12227566 34.171875 75.09765625 C33.17534912 75.09614563 33.17534912 75.09614563 32.15869141 75.09460449 C29.68910992 75.08939262 27.21955313 75.0625 C19.2225 75.0625 13.695 75.0625 8 75 C8 59.82 8 44.64 8 29 C5.36 29 2.72 29 0 29 C0 19.43 0 9.86 0 0 Z M5 5 C5 11.27 5 17.54 5 24 C7.45695312 24.03738281 9.91390625 24.07476562 12.4453125 24.11328125 C14.83830406 24.15956036 17.23114315 24.21077062 19.62402344 24.26245117 C21.28050384 24.29560018 22.93709446 24.32366309 24.59375 24.34643555 C26.98224634 24.38016732 29.36974171 24.43248959 31.7578125 24.48828125 C32.49242706 24.49467117 33.22704163 24.5010611 33.98391724 24.50764465 C39.5779999 24.6657689 43.86855088 25.82799477 47.84765625 29.8828125 C49.95553221 33.75558799 49.61354859 37.72538673 49 42 C46.9451313 46.10973739 45.27064606 48.36147768 41 50 C37.97558594 50.31884766 37.97558594 50.31884766 34.484375 50.4140625 C33.23398438 50.45273438 31.98359375 50.49140625 30.6953125 50.53125 C29.39335938 50.5621875 28.09140625 50.593125 26.75 50.625 C25.43257812 50.66367188 24.11515625 50.70234375 22.7578125 50.7421875 C19.50543922 50.83645919 16.25273879 50.91931849 13 51 C13 56.94 13 62.88 13 69 C16.91154441 69.11610785 20.81858996 69.21520697 24.73095703 69.2746582 C26.69996473 69.31156222 28.66841495 69.3751618 30.63671875 69.43945312 C42.1152095 69.58511925 51.83618352 67.0350034 60.3125 58.96484375 C67.06690692 51.10033755 68.37172509 43.66274562 68.27734375 33.54296875 C67.89330933 28.63706427 66.57795741 25.14714887 64 21 C63.56429687 20.29101562 63.12859375 19.58203125 62.6796875 18.8515625 C57.77723477 11.64522488 51.52413555 7.79455485 43 6 C34.9713941 4.847132 27.03780489 4.88560056 18.9375 4.9375 C17.58138187 4.94252686 16.22526192 4.94708766 14.86914062 4.95117188 C11.57940765 4.96287911 8.28969785 4.98081187 5 5 Z " fill="#7D2572" transform="translate(41,48)"/>
<path d="M0 0 C4.06290008 -0.08095816 8.12418567 -0.14048645 12.1875 -0.1875 C13.91323242 -0.22520508 13.91323242 -0.22520508 15.67382812 -0.26367188 C17.34155273 -0.27817383 17.34155273 -0.27817383 19.04296875 -0.29296875 C20.06414795 -0.3086792 21.08532715 -0.32438965 22.13745117 -0.34057617 C25.74371145 0.08848422 28.41524436 1.41524436 31 4 C31.2734375 5.92578125 31.2734375 5.92578125 31.375 8.3125 C31.44847656 9.48232422 31.44847656 9.48232422 31.5234375 10.67578125 C30.74113112 14.1494551 28.92072461 15.07642532 26 17 C23.0456543 17.45410156 23.0456543 17.45410156 19.82421875 17.390625 C18.66728516 17.37773438 17.51035156 17.36484375 16.31835938 17.3515625 C15.12017578 17.31804687 13.92199219 17.28453125 12.6875 17.25 C10.8612207 17.22292969 10.8612207 17.22292969 8.99804688 17.1953125 C5.99836045 17.1482586 2.99907948 17.07651797 0 17 C0 11.39 0 5.78 0 0 Z " fill="#FEFDFE" transform="translate(54,77)"/>
</svg>
